<?xml version="1.0" encoding="utf-8"?>
<!-- Generator: Adobe Illustrator 25.2.1, SVG Export Plug-In . SVG Version: 6.00 Build 0)  -->
<svg version="1.1" xmlns="http://www.w3.org/2000/svg" xmlns:xlink="http://www.w3.org/1999/xlink" x="0px" y="0px"
	 viewBox="0 0 1920 1080" style="enable-background:new 0 0 1920 1080;" xml:space="preserve">
<style type="text/css">
	.st0{display:none;}
	.st1{display:inline;}
	.st2{fill:#123740;}
	.st3{fill:#F1802D;}
	.st4{font-family:'SFAtarianSystemBoldItalic';}
	.st5{font-size:343.812px;}
	.st6{font-family:'SFAtarianSystemBold';}
	.st7{font-size:255.7207px;}
	.st8{fill:none;stroke:#F1802D;stroke-width:5;stroke-miterlimit:10;}
	.st9{fill:none;stroke:#F1802D;stroke-width:3;stroke-miterlimit:10;}
</style>
<g id="Capa_1" class="st0">
	<g class="st1">
		<rect class="st2" width="1920" height="1080"/>
	</g>
</g>
<g id="Capa_3" class="st0">
</g>
<g id="Capa_2">
	<text transform="matrix(1 0 0 1 501.7915 530.0605)" class="st3 st4 st5">Boom</text>
	<text transform="matrix(1 0 0 1 496.9912 743.9033)" class="st3 st6 st7">Percussion</text>
</g>
<g id="Capa_4">
	<g id="XMLID_1_">
		<g>
			<path class="st3" d="M1691,451.4c0,0,19.53,20.95-8.03,29.53l-1.14-0.15c3.96-9.36,7.01-19.2,9.05-29.41L1691,451.4z"/>
			<path class="st3" d="M1669.03,337.47c0,0,28.65,0.6,15.59,26.34l-1.73,0.7c-3.8-9.47-8.53-18.47-14.06-26.9L1669.03,337.47z"/>
			<path class="st3" d="M1629.57,545.83l0.71,0.98c0,0-0.38,28.65-26.23,15.78l-3.46-0.56
				C1610.88,557.68,1620.58,552.23,1629.57,545.83z"/>
			<path class="st3" d="M1595.98,277.2l-0.53,1.39c-9.3-3.54-19.04-6.19-29.11-7.86l0.3-1.73
				C1568.72,267.16,1587.89,251.14,1595.98,277.2z"/>
			<path class="st3" d="M1517.9,572.27l-0.24,1.55c0,0-20.95,19.53-29.53-8.04l0.4-1.06
				C1497.93,568.17,1507.74,570.72,1517.9,572.27z"/>
			<path class="st3" d="M1477.24,281.48l0.43,0.96c-9.2,4.21-17.91,9.31-26.02,15.19C1451.73,293.5,1453.27,270.67,1477.24,281.48z"
				/>
			<path class="st3" d="M1417.68,511.19c-3.72,0.04-27.26-0.67-16.89-25.2l1.94-0.12C1406.91,494.82,1411.93,503.3,1417.68,511.19z"
				/>
			<path class="st3" d="M1396.07,370.95l0.81,0.29c-3.28,9.43-5.66,19.3-7.04,29.48l-1.81-0.24
				C1388.03,400.48,1368.5,379.51,1396.07,370.95z"/>
		</g>
		<g>
			<path class="st8" d="M1682.9,364.5c7.05,17.57,10.94,36.76,10.94,56.84c0,10.28-1.02,20.32-2.95,30.03
				c-2.04,10.2-5.09,20.05-9.05,29.41c-11.1,26.24-29.32,48.74-52.26,65.05c-8.99,6.41-18.69,11.85-28.99,16.2
				c-18.27,7.73-38.36,12-59.44,12c-7.91,0-15.67-0.6-23.25-1.76c-10.15-1.55-19.97-4.1-29.37-7.55
				c-28.6-10.5-53.19-29.32-70.84-53.53c-5.76-7.89-10.77-16.37-14.96-25.32c-9.15-19.6-14.26-41.47-14.26-64.53
				c0-7,0.47-13.89,1.38-20.63c1.38-10.18,3.76-20.05,7.04-29.48c10.35-29.82,29.69-55.44,54.78-73.6
				c8.11-5.88,16.82-10.99,26.02-15.19c19.33-8.85,40.83-13.78,63.47-13.78c8.58,0,16.99,0.71,25.19,2.07
				c10.07,1.66,19.81,4.32,29.11,7.86c30.24,11.52,55.89,32.36,73.39,59.01C1674.37,346.03,1679.1,355.03,1682.9,364.5z"/>
			<circle class="st8" cx="1541.15" cy="422.59" r="124.13"/>
			<path class="st9" d="M1566.45,269.17c0,0,0.06-0.06,0.19-0.16c2.09-1.85,21.25-17.86,29.35,8.19"/>
			<path class="st9" d="M1669.03,337.47c0,0,28.65,0.6,15.59,26.34"/>
			<path class="st9" d="M1691,451.4c0,0,19.53,20.95-8.03,29.53"/>
			<path class="st9" d="M1630.28,546.81c0,0-0.38,28.65-26.23,15.78"/>
			<path class="st9" d="M1517.66,573.82c0,0-20.95,19.53-29.53-8.04"/>
			<path class="st9" d="M1418.17,511.18c0,0-0.17,0.01-0.48,0.01c-3.72,0.04-27.26-0.67-16.89-25.2"/>
			<path class="st9" d="M1388.03,400.48c0,0-19.53-20.97,8.04-29.53"/>
			<path class="st9" d="M1451.65,298.25c0,0,0-0.22,0.01-0.62c0.07-4.13,1.61-26.96,25.58-16.15"/>
		</g>
	</g>
	<path class="st3" d="M1471.21,358.38l135.53,137.43c0,0,21.2,10.4,9.76-11.29l-136.47-132.76c0,0-1.47,0-2.21-2.94
		c0,0-2.21-8.09-13.24-6.62c0,0-5.15,5.15,2.21,13.24C1466.8,355.44,1468.27,355.44,1471.21,358.38z"/>
	<path class="st3" d="M1611.74,358.26l-135.53,137.43c0,0-21.2,10.4-9.77-11.29l136.47-132.76c0,0,1.47,0,2.21-2.94
		c0,0,2.21-8.09,13.24-6.62c0,0,5.15,5.15-2.21,13.24C1616.15,355.32,1614.68,355.32,1611.74,358.26z"/>
</g>
</svg>
