<?xml version="1.0" encoding="utf-8"?>
<!-- Generator: Adobe Illustrator 25.2.1, SVG Export Plug-In . SVG Version: 6.00 Build 0)  -->
<svg version="1.1" xmlns="http://www.w3.org/2000/svg" xmlns:xlink="http://www.w3.org/1999/xlink" x="0px" y="0px"
	 viewBox="0 0 1920 1080" style="enable-background:new 0 0 1920 1080;" xml:space="preserve">
<style type="text/css">
	.st0{display:none;}
	.st1{display:inline;}
	.st2{fill:#123740;}
	.st3{display:inline;fill:#F1802D;}
	.st4{font-family:'SFAtarianSystemBoldItalic';}
	.st5{font-size:343.812px;}
	.st6{font-family:'SFAtarianSystemBold';}
	.st7{font-size:255.7207px;}
	.st8{fill:#F1802D;}
	.st9{fill:none;stroke:#F1802D;stroke-width:5;stroke-miterlimit:10;}
	.st10{fill:none;stroke:#F1802D;stroke-width:3;stroke-miterlimit:10;}
</style>
<g id="Capa_1" class="st0">
	<g class="st1">
		<rect class="st2" width="1920" height="1080"/>
	</g>
</g>
<g id="Capa_3" class="st0">
</g>
<g id="Capa_2" class="st0">
	<text transform="matrix(1 0 0 1 501.7915 530.0605)" class="st3 st4 st5">Boom</text>
	<text transform="matrix(1 0 0 1 496.9912 743.9033)" class="st3 st6 st7">Percussion</text>
</g>
<g id="Capa_4" class="st0">
	<g id="XMLID_1_" class="st1">
		<g>
			<path class="st8" d="M1272.86,601.46c0,0,40.3,43.25-16.58,60.96l-2.36-0.31c8.17-19.32,14.48-39.64,18.68-60.7L1272.86,601.46z"
				/>
			<path class="st8" d="M1227.51,366.29c0,0,59.14,1.23,32.18,54.37l-3.56,1.43c-7.84-19.55-17.6-38.13-29.03-55.52L1227.51,366.29z
				"/>
			<path class="st8" d="M1146.05,796.37l1.46,2.02c0,0-0.79,59.14-54.14,32.57l-7.15-1.15
				C1107.47,820.84,1127.5,809.59,1146.05,796.37z"/>
			<path class="st8" d="M1076.72,241.89l-1.1,2.87c-19.19-7.3-39.31-12.79-60.09-16.22l0.61-3.56
				C1020.45,221.16,1060.01,188.11,1076.72,241.89z"/>
			<path class="st8" d="M915.55,850.95l-0.49,3.2c0,0-43.25,40.3-60.96-16.6l0.82-2.18C874.32,842.49,894.59,847.75,915.55,850.95z"
				/>
			<path class="st8" d="M831.64,250.73l0.9,1.97c-18.99,8.69-36.97,19.22-53.71,31.36C778.98,275.54,782.16,228.42,831.64,250.73z"
				/>
			<path class="st8" d="M708.7,724.89c-7.69,0.08-56.27-1.38-34.87-52.01l4-0.26C686.46,691.09,696.81,708.59,708.7,724.89z"/>
			<path class="st8" d="M664.09,435.4l1.67,0.59c-6.76,19.47-11.68,39.84-14.53,60.85l-3.74-0.49
				C647.48,496.35,607.18,453.08,664.09,435.4z"/>
		</g>
		<g>
			<path class="st9" d="M1256.13,422.1c14.55,36.26,22.57,75.87,22.57,117.33c0,21.22-2.1,41.94-6.1,61.98
				c-4.2,21.06-10.51,41.38-18.68,60.7c-22.91,54.17-60.52,100.6-107.87,134.26c-18.55,13.22-38.59,24.47-59.83,33.44
				c-37.72,15.96-79.17,24.78-122.68,24.78c-16.32,0-32.34-1.23-47.99-3.64c-20.96-3.2-41.23-8.46-60.62-15.58
				c-59.04-21.68-109.79-60.52-146.23-110.49c-11.89-16.3-22.24-33.8-30.88-52.27c-18.88-40.46-29.44-85.61-29.44-133.19
				c0-14.45,0.97-28.67,2.84-42.59c2.84-21.01,7.76-41.38,14.53-60.85c21.37-61.55,61.29-114.43,113.07-151.92
				c16.73-12.15,34.72-22.68,53.71-31.36c39.89-18.27,84.27-28.44,131.01-28.44c17.71,0,35.08,1.46,51.99,4.28
				c20.78,3.43,40.89,8.92,60.09,16.22c62.42,23.78,115.35,66.8,151.48,121.81C1238.53,383.97,1248.29,402.55,1256.13,422.1z"/>
			<circle class="st9" cx="963.54" cy="541.99" r="256.23"/>
			<path class="st10" d="M1015.76,225.32c0,0,0.13-0.13,0.38-0.33c4.3-3.82,43.87-36.87,60.57,16.91"/>
			<path class="st10" d="M1227.51,366.29c0,0,59.14,1.23,32.18,54.37"/>
			<path class="st10" d="M1272.86,601.46c0,0,40.3,43.25-16.58,60.96"/>
			<path class="st10" d="M1147.51,798.4c0,0-0.79,59.14-54.14,32.57"/>
			<path class="st10" d="M915.06,854.15c0,0-43.25,40.3-60.96-16.6"/>
			<path class="st10" d="M709.7,724.86c0,0-0.36,0.03-1,0.03c-7.69,0.08-56.27-1.38-34.87-52.01"/>
			<path class="st10" d="M647.48,496.35c0,0-40.3-43.28,16.6-60.96"/>
			<path class="st10" d="M778.8,285.35c0,0,0-0.46,0.03-1.28c0.15-8.53,3.33-55.65,52.81-33.34"/>
		</g>
	</g>
</g>
<g id="Capa_5">
	<path class="st8" d="M808.43,407.59l293.74,297.87c0,0,45.94,22.55,21.16-24.48L827.56,393.25c0,0-3.19,0-4.78-6.38
		c0,0-4.78-17.54-28.69-14.35c0,0-11.16,11.16,4.78,28.69C798.86,401.22,802.05,401.22,808.43,407.59z"/>
	<path class="st8" d="M1112.52,407.59L818.78,705.46c0,0-45.94,22.55-21.16-24.48l295.78-287.74c0,0,3.19,0,4.78-6.38
		c0,0,4.78-17.54,28.69-14.35c0,0,11.16,11.16-4.78,28.69C1122.09,401.22,1118.9,401.22,1112.52,407.59z"/>
</g>
</svg>
